<svg width="512" height="512" viewBox="0 0 512 512" fill="none" xmlns="http://www.w3.org/2000/svg">
<path d="M296 432H280V353.6C280 351.478 279.157 349.443 277.657 347.943C276.157 346.443 274.122 345.6 272 345.6C269.878 345.6 267.843 346.443 266.343 347.943C264.843 349.443 264 351.478 264 353.6V432H56V272H122.56C124.682 272 126.717 271.157 128.217 269.657C129.717 268.157 130.56 266.122 130.56 264C130.56 261.878 129.717 259.843 128.217 258.343C126.717 256.843 124.682 256 122.56 256H48C45.8783 256 43.8434 256.843 42.3431 258.343C40.8429 259.843 40 261.878 40 264V432H24C21.8783 432 19.8434 432.843 18.3431 434.343C16.8429 435.843 16 437.878 16 440V456C16 466.609 20.2143 476.783 27.7157 484.284C35.2172 491.786 45.3913 496 56 496H264C274.609 496 284.783 491.786 292.284 484.284C299.786 476.783 304 466.609 304 456V440C304 437.878 303.157 435.843 301.657 434.343C300.157 432.843 298.122 432 296 432ZM288 456C288 462.365 285.471 468.47 280.971 472.971C276.47 477.471 270.365 480 264 480H248V472C248 469.878 247.157 467.843 245.657 466.343C244.157 464.843 242.122 464 240 464C237.878 464 235.843 464.843 234.343 466.343C232.843 467.843 232 469.878 232 472V480H88V472C88 469.878 87.1571 467.843 85.6569 466.343C84.1566 464.843 82.1217 464 80 464C77.8783 464 75.8434 464.843 74.3431 466.343C72.8429 467.843 72 469.878 72 472V480H56C49.6348 480 43.5303 477.471 39.0294 472.971C34.5286 468.47 32 462.365 32 456V448H288V456Z" fill="white"/>
<path d="M432 64H448C450.122 64 452.157 63.1571 453.657 61.6569C455.157 60.1566 456 58.1217 456 56C456 53.8783 455.157 51.8434 453.657 50.3431C452.157 48.8429 450.122 48 448 48H432C425.635 48 419.53 50.5286 415.029 55.0294C410.529 59.5303 408 65.6348 408 72V80H400C397.878 80 395.843 80.8429 394.343 82.3431C392.843 83.8434 392 85.8783 392 88C392 90.1217 392.843 92.1566 394.343 93.6569C395.843 95.1571 397.878 96 400 96H408V120C408 122.122 408.843 124.157 410.343 125.657C411.843 127.157 413.878 128 416 128C418.122 128 420.157 127.157 421.657 125.657C423.157 124.157 424 122.122 424 120V96H432C434.122 96 436.157 95.1571 437.657 93.6569C439.157 92.1566 440 90.1217 440 88C440 85.8783 439.157 83.8434 437.657 82.3431C436.157 80.8429 434.122 80 432 80H424V72C424 69.8783 424.843 67.8434 426.343 66.3431C427.843 64.8429 429.878 64 432 64Z" fill="white"/>
<path d="M472 16H376C369.635 16 363.53 18.5286 359.029 23.0294C354.529 27.5303 352 33.6348 352 40V56C352 58.1217 352.843 60.1566 354.343 61.6569C355.843 63.1571 357.878 64 360 64C362.122 64 364.157 63.1571 365.657 61.6569C367.157 60.1566 368 58.1217 368 56V40C368 37.8783 368.843 35.8434 370.343 34.3431C371.843 32.8429 373.878 32 376 32H472C474.122 32 476.157 32.8429 477.657 34.3431C479.157 35.8434 480 37.8783 480 40V136C480 138.122 479.157 140.157 477.657 141.657C476.157 143.157 474.122 144 472 144H376C373.878 144 371.843 143.157 370.343 141.657C368.843 140.157 368 138.122 368 136V88C368 85.8783 367.157 83.8434 365.657 82.3431C364.157 80.8429 362.122 80 360 80C357.878 80 355.843 80.8429 354.343 82.3431C352.843 83.8434 352 85.8783 352 88V136C352 142.365 354.529 148.47 359.029 152.971C363.53 157.471 369.635 160 376 160H472C478.365 160 484.47 157.471 488.971 152.971C493.471 148.47 496 142.365 496 136V40C496 33.6348 493.471 27.5303 488.971 23.0294C484.47 18.5286 478.365 16 472 16V16Z" fill="white"/>
<path d="M392 336C392 342.329 393.877 348.516 397.393 353.778C400.909 359.041 405.907 363.142 411.754 365.564C417.601 367.986 424.035 368.62 430.243 367.385C436.45 366.15 442.152 363.103 446.627 358.627C451.103 354.152 454.15 348.45 455.385 342.243C456.62 336.035 455.986 329.601 453.564 323.754C451.142 317.907 447.041 312.909 441.778 309.393C436.516 305.877 430.329 304 424 304C415.513 304 407.374 307.371 401.373 313.373C395.371 319.374 392 327.513 392 336ZM440 336C440 339.165 439.062 342.258 437.304 344.889C435.545 347.52 433.047 349.571 430.123 350.782C427.199 351.993 423.982 352.31 420.879 351.693C417.775 351.075 414.924 349.551 412.686 347.314C410.449 345.076 408.925 342.225 408.307 339.121C407.69 336.018 408.007 332.801 409.218 329.877C410.429 326.953 412.48 324.455 415.111 322.696C417.742 320.938 420.835 320 424 320C428.243 320 432.313 321.686 435.314 324.686C438.314 327.687 440 331.757 440 336Z" fill="white"/>
<path d="M472 264H376C369.635 264 363.53 266.529 359.029 271.029C354.529 275.53 352 281.635 352 288V384C352 390.365 354.529 396.47 359.029 400.971C363.53 405.471 369.635 408 376 408H472C478.365 408 484.47 405.471 488.971 400.971C493.471 396.47 496 390.365 496 384V368C496 365.878 495.157 363.843 493.657 362.343C492.157 360.843 490.122 360 488 360C485.878 360 483.843 360.843 482.343 362.343C480.843 363.843 480 365.878 480 368V384C480 386.122 479.157 388.157 477.657 389.657C476.157 391.157 474.122 392 472 392H376C373.878 392 371.843 391.157 370.343 389.657C368.843 388.157 368 386.122 368 384V288C368 285.878 368.843 283.843 370.343 282.343C371.843 280.843 373.878 280 376 280H472C474.122 280 476.157 280.843 477.657 282.343C479.157 283.843 480 285.878 480 288V336C480 338.122 480.843 340.157 482.343 341.657C483.843 343.157 485.878 344 488 344C490.122 344 492.157 343.157 493.657 341.657C495.157 340.157 496 338.122 496 336V288C496 281.635 493.471 275.53 488.971 271.029C484.47 266.529 478.365 264 472 264V264Z" fill="white"/>
<path d="M195.76 110.8C197.033 111.589 198.502 112.005 200 112C201.252 111.992 202.485 111.691 203.6 111.12L251.6 87.12C252.91 86.4486 254.01 85.4287 254.778 84.1724C255.546 82.9161 255.952 81.4723 255.952 80C255.952 78.5276 255.546 77.0838 254.778 75.8275C254.01 74.5713 252.91 73.5513 251.6 72.88L203.6 48.88C202.382 48.2663 201.028 47.9741 199.665 48.0312C198.303 48.0883 196.977 48.4927 195.815 49.2061C194.653 49.9194 193.692 50.9181 193.025 52.1072C192.357 53.2962 192.004 54.6362 192 56V104C191.997 105.36 192.341 106.697 192.999 107.887C193.657 109.077 194.607 110.079 195.76 110.8V110.8ZM208 68.96L230.08 80L208 91.04V68.96Z" fill="white"/>
<path d="M216 152C230.24 152 244.161 147.777 256.001 139.866C267.841 131.954 277.07 120.71 282.519 107.553C287.969 94.397 289.395 79.9202 286.617 65.9535C283.838 51.9869 276.981 39.1577 266.912 29.0883C256.842 19.019 244.013 12.1616 230.047 9.38349C216.08 6.60536 201.603 8.0312 188.447 13.4807C175.291 18.9302 164.046 28.1586 156.134 39.999C148.223 51.8393 144 65.7598 144 80C144 99.0956 151.586 117.409 165.088 130.912C178.591 144.414 196.904 152 216 152V152ZM216 24C227.076 24 237.903 27.2844 247.112 33.4377C256.321 39.5911 263.499 48.3371 267.737 58.5698C271.976 68.8024 273.085 80.0622 270.924 90.9251C268.763 101.788 263.43 111.766 255.598 119.598C247.766 127.43 237.788 132.763 226.925 134.924C216.062 137.085 204.802 135.976 194.57 131.737C184.337 127.499 175.591 120.321 169.438 111.112C163.284 101.903 160 91.0758 160 80C160 65.1479 165.9 50.9041 176.402 40.4021C186.904 29.9 201.148 24 216 24V24Z" fill="white"/>
<path d="M296 184C297.242 184 298.467 183.711 299.578 183.155C300.689 182.6 301.655 181.794 302.4 180.8L326.4 148.8C327.673 147.103 328.22 144.969 327.92 142.869C327.62 140.768 326.497 138.873 324.8 137.6C323.103 136.327 320.969 135.78 318.869 136.08C316.768 136.38 314.873 137.503 313.6 139.2L289.6 171.2C288.327 172.897 287.78 175.031 288.08 177.131C288.38 179.232 289.503 181.127 291.2 182.4C292.585 183.439 294.269 184 296 184Z" fill="white"/>
<path d="M313.6 212.8C314.345 213.794 315.311 214.6 316.422 215.155C317.533 215.711 318.758 216 320 216C321.731 216 323.415 215.439 324.8 214.4L356.8 190.4C358.497 189.127 359.62 187.232 359.92 185.131C360.22 183.031 359.673 180.897 358.4 179.2C357.127 177.503 355.232 176.38 353.131 176.08C351.031 175.78 348.897 176.327 347.2 177.6L315.2 201.6C313.503 202.873 312.38 204.768 312.08 206.869C311.78 208.969 312.327 211.103 313.6 212.8V212.8Z" fill="white"/>
<path d="M392 230.4C391.81 229.339 391.407 228.328 390.817 227.427C390.226 226.526 389.46 225.753 388.563 225.155C387.667 224.558 386.659 224.147 385.6 223.949C384.54 223.75 383.452 223.768 382.4 224L342.4 232C341.349 232.105 340.33 232.416 339.399 232.915C338.469 233.414 337.646 234.092 336.978 234.909C335.627 236.559 334.988 238.678 335.2 240.8C335.412 242.922 336.459 244.872 338.109 246.222C339.759 247.573 341.878 248.212 344 248H345.6L385.6 240C386.661 239.81 387.672 239.407 388.573 238.817C389.474 238.226 390.247 237.46 390.845 236.563C391.442 235.667 391.853 234.658 392.051 233.599C392.25 232.54 392.232 231.452 392 230.4Z" fill="white"/>
<path d="M24 232H120C122.122 232 124.157 231.157 125.657 229.657C127.157 228.157 128 226.122 128 224V96C128 93.8783 127.157 91.8434 125.657 90.3431C124.157 88.8429 122.122 88 120 88H24C21.8783 88 19.8434 88.8429 18.3431 90.3431C16.8429 91.8434 16 93.8783 16 96V224C16 226.122 16.8429 228.157 18.3431 229.657C19.8434 231.157 21.8783 232 24 232ZM32 104H112V216H32V104Z" fill="white"/>
<path d="M88 120H72C69.8783 120 67.8434 120.843 66.3431 122.343C64.8429 123.843 64 125.878 64 128C64 130.122 64.8429 132.157 66.3431 133.657C67.8434 135.157 69.8783 136 72 136H88C90.1217 136 92.1566 135.157 93.6569 133.657C95.1571 132.157 96 130.122 96 128C96 125.878 95.1571 123.843 93.6569 122.343C92.1566 120.843 90.1217 120 88 120Z" fill="white"/>
<path d="M88 152H56C53.8783 152 51.8434 152.843 50.3431 154.343C48.8429 155.843 48 157.878 48 160C48 162.122 48.8429 164.157 50.3431 165.657C51.8434 167.157 53.8783 168 56 168H88C90.1217 168 92.1566 167.157 93.6569 165.657C95.1571 164.157 96 162.122 96 160C96 157.878 95.1571 155.843 93.6569 154.343C92.1566 152.843 90.1217 152 88 152Z" fill="white"/>
<path d="M88 184H56C53.8783 184 51.8434 184.843 50.3431 186.343C48.8429 187.843 48 189.878 48 192C48 194.122 48.8429 196.157 50.3431 197.657C51.8434 199.157 53.8783 200 56 200H88C90.1217 200 92.1566 199.157 93.6569 197.657C95.1571 196.157 96 194.122 96 192C96 189.878 95.1571 187.843 93.6569 186.343C92.1566 184.843 90.1217 184 88 184Z" fill="white"/>
<path d="M288.96 229.6C288.435 228.686 287.735 227.884 286.899 227.241C286.064 226.598 285.111 226.125 284.093 225.85C283.075 225.575 282.013 225.504 280.968 225.639C279.922 225.775 278.914 226.115 278 226.64C277.086 227.165 276.284 227.865 275.641 228.701C274.998 229.536 274.525 230.489 274.25 231.507C273.975 232.525 273.903 233.587 274.039 234.632C274.175 235.678 274.515 236.686 275.04 237.6L310.32 298.64L182.32 346.64C182.32 346.64 182.32 346.64 181.76 346.64H181.12L160.32 358.64L146.48 366.64C144.658 367.693 142.646 368.377 140.559 368.651C138.473 368.926 136.352 368.786 134.32 368.24C130.237 367.137 126.756 364.462 124.64 360.8L108.64 333.12C106.758 329.499 106.33 325.295 107.446 321.368C108.561 317.442 111.135 314.091 114.64 312L142.32 296L162.32 330.64C163.025 331.861 164.04 332.874 165.262 333.576C166.484 334.279 167.87 334.646 169.28 334.64C170.687 334.646 172.071 334.28 173.291 333.58C174.512 332.88 175.526 331.871 176.232 330.654C176.938 329.437 177.31 328.055 177.312 326.648C177.313 325.241 176.943 323.859 176.24 322.64L155.6 286.96L256 204.16L259.28 209.84C259.805 210.754 260.505 211.556 261.34 212.199C262.176 212.842 263.129 213.315 264.147 213.59C265.165 213.865 266.227 213.936 267.272 213.801C268.317 213.665 269.326 213.325 270.24 212.8C271.154 212.275 271.956 211.575 272.599 210.74C273.242 209.904 273.715 208.951 273.99 207.933C274.265 206.915 274.336 205.853 274.201 204.808C274.065 203.763 273.725 202.754 273.2 201.84L265.2 188C264.614 186.998 263.816 186.135 262.863 185.472C261.91 184.809 260.824 184.361 259.68 184.16C258.53 183.943 257.347 183.981 256.213 184.272C255.08 184.562 254.024 185.097 253.12 185.84L141.12 278.16L107.04 297.84C100.924 301.402 96.1617 306.892 93.4982 313.449C90.8347 320.007 90.4203 327.262 92.3199 334.08L84.3199 338.64C80.198 341.007 76.8717 344.545 74.7629 348.805C72.6541 353.065 71.8577 357.855 72.4747 362.568C73.0916 367.281 75.0942 371.704 78.2285 375.278C81.3628 378.851 85.4876 381.414 90.08 382.64C92.1158 383.179 94.2139 383.448 96.3199 383.44C100.529 383.423 104.662 382.32 108.32 380.24L116.32 375.68C120.163 379.65 124.996 382.522 130.32 384C133.054 384.765 135.881 385.142 138.72 385.12C144.343 385.133 149.867 383.641 154.72 380.8L161.68 376.8L177.68 404.56C180.86 410.058 186.089 414.071 192.222 415.72C198.355 417.37 204.892 416.521 210.4 413.36C213.133 411.785 215.528 409.688 217.45 407.187C219.371 404.686 220.781 401.83 221.598 398.784C222.416 395.738 222.625 392.56 222.213 389.433C221.801 386.306 220.778 383.291 219.2 380.56L204.64 355.2L324.64 310.16C325.728 309.751 326.714 309.11 327.529 308.281C328.345 307.452 328.969 306.455 329.36 305.36C329.749 304.278 329.901 303.125 329.804 301.979C329.708 300.833 329.365 299.722 328.8 298.72L288.96 229.6ZM99.9999 366.32C99.0889 366.847 98.083 367.188 97.0396 367.326C95.9963 367.463 94.9362 367.393 93.9199 367.12C91.8703 366.588 90.1154 365.264 89.0399 363.44C88.5133 362.529 88.1715 361.523 88.0342 360.48C87.897 359.436 87.9669 358.376 88.2399 357.36C88.5131 356.338 88.986 355.381 89.6314 354.544C90.2768 353.706 91.0818 353.005 91.9999 352.48L98.9599 348.48L106.96 362.32L99.9999 366.32ZM205.28 388.72C205.807 389.631 206.148 390.637 206.286 391.68C206.423 392.724 206.353 393.784 206.08 394.8C205.509 396.834 204.158 398.559 202.32 399.6C200.493 400.65 198.325 400.936 196.288 400.397C194.251 399.858 192.509 398.536 191.44 396.72L175.44 368.96L188.72 361.36H189.36L205.28 388.72Z" fill="white"/>
</svg>
