<svg width="512" height="512" viewBox="0 0 512 512" fill="none" xmlns="http://www.w3.org/2000/svg">
<path d="M494.5 158.875H414.383L462.223 105.617C464.879 102.656 466.227 98.8437 466.016 94.875C465.801 90.9023 464.055 87.2539 461.098 84.5976L440.523 66.1211C434.418 60.6367 424.988 61.1406 419.508 67.2461L337.199 158.875H193.949C189.809 158.875 186.449 162.23 186.449 166.375C186.449 170.519 189.809 173.875 193.949 173.875H323.727L290.266 211.125C287.609 214.082 286.266 217.898 286.477 221.867C286.504 222.336 286.551 222.797 286.617 223.258L275.117 254.355C273.41 258.973 274.672 264.082 278.336 267.371C280.582 269.391 283.418 270.437 286.289 270.437C288.094 270.437 289.914 270.023 291.617 269.18L321.332 254.406C321.52 254.414 321.703 254.434 321.895 254.434C322.164 254.434 322.434 254.426 322.707 254.41C326.676 254.195 330.324 252.453 332.984 249.492L400.91 173.875H494.5C495.879 173.875 497 174.996 497 176.375V465.336C497 466.715 495.879 467.836 494.5 467.836H439.938C435.797 467.836 432.438 471.191 432.438 475.336C432.438 479.477 435.797 482.836 439.938 482.836H494.5C504.148 482.836 512 474.984 512 465.336V176.375C512 166.723 504.148 158.875 494.5 158.875ZM450.988 95.6796L442.078 105.594L421.68 87.2734L430.59 77.3554L450.988 95.6796ZM411.656 98.4336L416.277 102.582L306.125 225.211L301.504 221.059L411.656 98.4336ZM297.348 237.488L306.012 245.273L291.871 252.301L297.348 237.488ZM321.902 239.383L317.281 235.234L427.438 112.605L432.055 116.754L321.902 239.383Z" fill="white"/>
<path d="M407.277 467.836H69.9453C39.6484 467.836 15 443.188 15 412.891V408.926C15 378.629 39.6445 353.984 69.9414 353.984H85.3555C95.0078 353.984 102.855 346.133 102.855 336.484V173.875H161.289C165.434 173.875 168.789 170.516 168.789 166.375C168.789 162.23 165.434 158.875 161.289 158.875H102.855V132.832C102.855 128.691 99.5 125.332 95.3555 125.332C91.2148 125.332 87.8555 128.691 87.8555 132.832V336.484C87.8555 337.863 86.7344 338.984 85.3555 338.984H69.9414C47.6836 338.984 27.8164 349.438 15 365.691V99.9453C15 69.6484 39.6484 45 69.9453 45H85.3555C86.7344 45 87.8555 46.1211 87.8555 47.5V100.172C87.8555 104.316 91.2148 107.672 95.3555 107.672C99.5 107.672 102.855 104.316 102.855 100.172V47.5C102.855 37.8516 95.0078 30 85.3555 30H69.9453C31.3789 30 0 61.375 0 99.9453V412.891C0 451.457 31.3789 482.836 69.9453 482.836H407.277C411.422 482.836 414.777 479.477 414.777 475.336C414.777 471.191 411.422 467.836 407.277 467.836Z" fill="white"/>
<path d="M400.195 238.055C369.559 238.055 344.438 262.07 342.641 292.262H308.113C303.973 292.262 300.613 295.621 300.613 299.762V385.434C300.613 389.578 303.973 392.934 308.113 392.934H393.785C397.93 392.934 401.285 389.578 401.285 385.434V353.371C432.586 352.785 457.867 327.16 457.867 295.727C457.867 263.926 431.996 238.055 400.195 238.055V238.055ZM386.289 336.059C373.152 331.516 362.91 320.73 359.125 307.262H386.289V336.059ZM315.613 377.934V307.262H343.688C348.125 329.027 364.859 346.363 386.289 351.691V377.934H315.613ZM401.289 338.371V299.762C401.289 295.621 397.93 292.262 393.789 292.262H357.68C359.449 270.348 377.836 253.055 400.199 253.055C423.727 253.055 442.871 272.195 442.871 295.727C442.867 318.891 424.312 337.789 401.289 338.371Z" fill="white"/>
<path d="M428.059 358.578C423.914 358.578 420.559 361.934 420.559 366.078C420.559 370.219 423.914 373.578 428.059 373.578H444.742C448.887 373.578 452.242 370.219 452.242 366.078C452.242 361.934 448.887 358.578 444.742 358.578H428.059Z" fill="white"/>
<path d="M452.242 385.434C452.242 381.293 448.887 377.934 444.742 377.934H428.059C423.914 377.934 420.559 381.293 420.559 385.434C420.559 389.578 423.914 392.934 428.059 392.934H444.742C448.887 392.934 452.242 389.578 452.242 385.434V385.434Z" fill="white"/>
<path d="M137 235.066H149C153.141 235.066 156.5 231.711 156.5 227.566C156.5 223.426 153.141 220.066 149 220.066H137C132.859 220.066 129.5 223.426 129.5 227.566C129.5 231.711 132.859 235.066 137 235.066Z" fill="white"/>
<path d="M137 256.918H194.895C199.039 256.918 202.395 253.559 202.395 249.418C202.395 245.273 199.039 241.918 194.895 241.918H137C132.859 241.918 129.5 245.273 129.5 249.418C129.5 253.559 132.859 256.918 137 256.918Z" fill="white"/>
<path d="M182.895 235.066H194.895C199.039 235.066 202.395 231.711 202.395 227.566C202.395 223.426 199.039 220.066 194.895 220.066H182.895C178.754 220.066 175.395 223.426 175.395 227.566C175.395 231.711 178.754 235.066 182.895 235.066Z" fill="white"/>
<path d="M240.789 220.066H228.789C224.648 220.066 221.289 223.426 221.289 227.566C221.289 231.711 224.648 235.066 228.789 235.066H240.789C244.934 235.066 248.289 231.711 248.289 227.566C248.289 223.426 244.934 220.066 240.789 220.066Z" fill="white"/>
<path d="M137 278.605H194.895C199.039 278.605 202.395 275.246 202.395 271.105C202.395 266.961 199.039 263.605 194.895 263.605H137C132.859 263.605 129.5 266.961 129.5 271.105C129.5 275.246 132.859 278.605 137 278.605Z" fill="white"/>
<path d="M129.5 292.789C129.5 296.934 132.859 300.289 137 300.289H228.789C232.934 300.289 236.289 296.934 236.289 292.789C236.289 288.648 232.934 285.289 228.789 285.289H137C132.859 285.289 129.5 288.648 129.5 292.789Z" fill="white"/>
<path d="M248.289 314.477C248.289 310.336 244.934 306.977 240.789 306.977H137C132.859 306.977 129.5 310.336 129.5 314.477C129.5 318.621 132.859 321.977 137 321.977H240.789C244.934 321.977 248.289 318.621 248.289 314.477Z" fill="white"/>
<path d="M165.168 349.418C165.168 345.273 161.809 341.918 157.668 341.918H137C132.859 341.918 129.5 345.273 129.5 349.418V370.082C129.5 374.227 132.859 377.582 137 377.582H157.668C161.809 377.582 165.168 374.227 165.168 370.082V349.418ZM150.168 362.586H144.5V356.918H150.168V362.586Z" fill="white"/>
<path d="M214.754 349.418C214.754 345.273 211.395 341.918 207.254 341.918H186.586C182.445 341.918 179.086 345.273 179.086 349.418V370.082C179.086 374.227 182.445 377.582 186.586 377.582H207.254C211.395 377.582 214.754 374.227 214.754 370.082V349.418ZM199.754 362.586H194.086V356.918H199.754V362.586Z" fill="white"/>
<path d="M264.344 349.418C264.344 345.273 260.984 341.918 256.844 341.918H236.176C232.031 341.918 228.676 345.273 228.676 349.418V370.082C228.676 374.227 232.031 377.582 236.176 377.582H256.844C260.984 377.582 264.344 374.227 264.344 370.082V349.418ZM249.344 362.586H243.676V356.918H249.344V362.586Z" fill="white"/>
<path d="M157.668 394.586H137C132.859 394.586 129.5 397.941 129.5 402.086V422.75C129.5 426.895 132.859 430.25 137 430.25H157.668C161.809 430.25 165.168 426.895 165.168 422.75V402.086C165.168 397.941 161.809 394.586 157.668 394.586ZM150.168 415.25H144.5V409.582H150.168V415.25Z" fill="white"/>
<path d="M207.254 394.586H186.586C182.445 394.586 179.086 397.941 179.086 402.086V422.75C179.086 426.895 182.445 430.25 186.586 430.25H207.254C211.395 430.25 214.754 426.895 214.754 422.75V402.086C214.754 397.941 211.395 394.586 207.254 394.586ZM199.754 415.25H194.086V409.582H199.754V415.25Z" fill="white"/>
<path d="M236.176 430.25H256.844C260.984 430.25 264.344 426.895 264.344 422.75V402.082C264.344 397.941 260.984 394.582 256.844 394.582H236.176C232.031 394.582 228.676 397.941 228.676 402.082V422.75C228.676 426.895 232.031 430.25 236.176 430.25ZM243.676 409.586H249.344V415.25H243.676V409.586Z" fill="white"/>
</svg>
