<svg width="499" height="499" viewBox="0 0 499 499" fill="none" xmlns="http://www.w3.org/2000/svg">
<g clip-path="url(#clip0)">
<path d="M211.872 212.544C211.48 209.416 211.976 206.432 213.032 203.712V203.72L201.304 192L225.304 184L234.832 185.36C227.224 176.864 230.432 163.224 241.328 159.264L292.128 140.792C271.64 118.248 242.168 104 209.304 104C147.448 104 97.304 154.144 97.304 216C97.304 277.856 147.448 328 209.304 328C232.048 328 253.168 321.176 270.84 309.536L217.304 256L211.872 212.544Z" fill="#F9BA48"/>
<path d="M251.768 212.92L265.304 240L297.304 264L317.744 243.56C318.328 241.248 318.896 238.928 319.336 236.56L310.64 221.336L251.768 212.92Z" fill="#F9BA48"/>
<path d="M478.552 398.448L456.928 403.856L425.112 333.856L415.168 244.352L429.888 246.456C430.864 246.6 431.84 246.656 432.8 246.656C441.488 246.656 449.36 241.128 452.168 232.68C454.096 226.92 453.368 220.648 450.176 215.48C446.984 210.304 441.688 206.84 435.672 205.976L417.304 203.344V40C417.304 17.944 399.36 0 377.304 0H41.304C19.248 0 1.30396 17.944 1.30396 40C1.30396 59.312 15.072 75.472 33.304 79.192V496H352.984L353.608 498.192L369 493.8L355.264 445.752L411.672 431.648L463.664 418.648L468.056 417.552L481.72 458.528L496.888 453.464L478.552 398.448ZM441.144 407.792L370.248 425.512L352.192 371.36L294.96 322.336L224.904 252.272L219.808 211.544C219.64 210.192 219.76 208.872 220.096 207.608L220.488 206.608C221.256 204.632 222.552 203.008 224.176 201.856C228.352 199.128 234.416 199.896 237.768 203.584C238.312 204.216 238.816 204.896 239.2 205.672L246.48 220.24L258.984 245.256L298.048 274.552L331.272 241.328L325.696 231.56L398.808 242.008L409.344 336.872L441.144 407.792ZM137.376 270.48C142.552 271.432 147.856 272 153.304 272C173.744 272 193.2 264.872 208.76 252.192L209.696 259.72L266.04 316.032C252.44 333.6 231.712 344 209.304 344C169.6 344 137.304 311.704 137.304 272C137.304 271.488 137.368 270.992 137.376 270.48ZM393.8 196.88L394.152 200.032L344.88 192.992L300 186.576L293.488 175.184L259.68 180.816L252.04 179.728L239.408 177.92C238.632 176.24 238.448 174.336 238.92 172.448C239.584 169.784 241.456 167.712 244.064 166.768L304.52 144.784L393.8 196.88ZM253.504 198.512C253.048 197.608 252.552 196.728 252 195.896L363.384 211.808L400.976 217.176L399.488 225.936L257.04 205.584L253.504 198.512ZM198.84 200.856L204.176 206.192C203.792 208.608 203.624 211.064 203.936 213.536L205.176 223.48C200.696 216.704 197.416 209.24 195.456 201.344C196.568 201.136 197.712 201.016 198.84 200.856ZM306.096 127.2L238.592 151.744C237.56 152.12 236.656 152.712 235.696 153.216C232.16 143.744 227.056 135.104 220.728 127.56C233.008 117.848 248.472 112 265.304 112C284.48 112 302.424 119.808 315.632 132.768L306.096 127.2ZM223.488 168.336C223.464 168.416 223.416 168.488 223.4 168.576C222.752 171.168 222.696 173.784 222.896 176.376L197.096 184.976C195.856 185.144 194.608 185.28 193.392 185.504C193.376 184.992 193.304 184.504 193.304 184C193.304 166.912 199.312 151.224 209.288 138.864C216.08 147.272 221.032 157.272 223.488 168.336ZM177.304 184C177.304 185.976 177.512 187.92 177.64 189.88C151.168 199.968 131.264 222.28 124.184 249.792C98.96 238.584 81.304 213.336 81.304 184C81.304 144.296 113.6 112 153.304 112C169.976 112 185.52 117.792 197.88 127.56C185.056 142.848 177.304 162.528 177.304 184ZM180.216 206.152C183.48 218.752 189.488 230.424 197.928 240.432C185.32 250.424 169.688 256 153.304 256C148.568 256 143.944 255.512 139.464 254.632C144.792 232.88 159.904 215.04 180.216 206.152ZM311.328 238.664L296.552 253.44L271.616 234.736L265.752 223.008L305.632 228.704L311.328 238.664ZM436.56 223.88C436.968 224.536 437.568 225.896 436.992 227.624C436.312 229.656 434.248 230.928 432.16 230.608L415.344 228.208L416.832 219.448L433.408 221.816C435.2 222.072 436.152 223.216 436.56 223.88ZM401.304 40V182.736L385.304 173.4V64H377.304C364.072 64 353.304 53.232 353.304 40C353.304 26.768 364.072 16 377.304 16C390.536 16 401.304 26.768 401.304 40ZM17.304 40C17.304 26.768 28.072 16 41.304 16H345.512C340.432 22.704 337.304 30.96 337.304 40C337.304 49.04 340.432 57.296 345.512 64H41.304C28.072 64 17.304 53.232 17.304 40ZM335.344 434.24L348.408 480H49.304V80H369.304V164.072L346.672 150.872C333.256 117.944 300.968 96 265.304 96C244.048 96 224.536 103.576 209.304 116.168C193.968 103.504 174.36 96 153.304 96C104.784 96 65.304 135.48 65.304 184C65.304 221.328 88.712 253.224 121.584 265.992C121.448 267.984 121.304 269.976 121.304 272C121.304 320.52 160.784 360 209.304 360C236.024 360 260.824 347.96 277.472 327.448L284.096 334.072L338.408 380.632L354.672 429.408L335.344 434.24Z" fill="white"/>
</g>
<defs>
<clipPath id="clip0">
<rect width="498.192" height="498.192" fill="white"/>
</clipPath>
</defs>
</svg>
