<svg height="512pt" viewBox="0 -29 512 511" width="512pt" xmlns="http://www.w3.org/2000/svg"><path d="m494.5 129.375h-80.117188l47.839844-53.257812c2.65625-2.960938 4.003906-6.773438 3.792969-10.742188-.214844-3.972656-1.960937-7.621094-4.917969-10.277344l-20.574218-18.476562c-6.105469-5.484375-15.535157-4.980469-21.015626 1.125l-82.308593 91.628906h-143.25c-4.140625 0-7.5 3.355469-7.5 7.5s3.359375 7.5 7.5 7.5h129.777343l-33.460937 37.25c-2.65625 2.957031-4 6.773438-3.789063 10.742188.027344.46875.074219.929687.140626 1.390624l-11.5 31.097657c-1.707032 4.617187-.445313 9.726562 3.21875 13.015625 2.246093 2.019531 5.082031 3.066406 7.953124 3.066406 1.804688 0 3.625-.414062 5.328126-1.257812l29.714843-14.773438c.1875.007812.371094.027344.5625.027344.269531 0 .539063-.007813.8125-.023438 3.96875-.214844 7.617188-1.957031 10.277344-4.917968l67.925781-75.617188h93.589844c1.378906 0 2.5 1.121094 2.5 2.5v288.960938c0 1.378906-1.121094 2.5-2.5 2.5h-54.5625c-4.140625 0-7.5 3.355468-7.5 7.5 0 4.140624 3.359375 7.5 7.5 7.5h54.5625c9.648438 0 17.5-7.851563 17.5-17.5v-288.960938c0-9.652344-7.851562-17.5-17.5-17.5zm-43.511719-63.195312-8.910156 9.914062-20.398437-18.320312 8.910156-9.917969zm-39.332031 2.753906 4.621094 4.148437-110.152344 122.628907-4.621094-4.152344zm-114.308594 139.054687 8.664063 7.785157-14.140625 7.027343zm24.554688 1.894531-4.621094-4.148437 110.15625-122.628906 4.617188 4.148437zm0 0"/><path d="m407.277344 438.335938h-337.332032c-30.296874 0-54.945312-24.648438-54.945312-54.945313v-3.964844c0-30.296875 24.644531-54.941406 54.941406-54.941406h15.414063c9.652343 0 17.5-7.851563 17.5-17.5v-162.609375h58.433593c4.144532 0 7.5-3.359375 7.5-7.5 0-4.144531-3.355468-7.5-7.5-7.5h-58.433593v-26.042969c0-4.140625-3.355469-7.5-7.5-7.5-4.140625 0-7.5 3.359375-7.5 7.5v203.652344c0 1.378906-1.121094 2.5-2.5 2.5h-15.414063c-22.257812 0-42.125 10.453125-54.941406 26.707031v-265.746094c0-30.296874 24.648438-54.945312 54.945312-54.945312h15.410157c1.378906 0 2.5 1.121094 2.5 2.5v52.671875c0 4.144531 3.359375 7.5 7.5 7.5 4.144531 0 7.5-3.355469 7.5-7.5v-52.671875c0-9.648438-7.847657-17.5-17.5-17.5h-15.410157c-38.566406 0-69.945312 31.375-69.945312 69.945312v312.945313c0 38.566406 31.378906 69.945313 69.945312 69.945313h337.332032c4.144531 0 7.5-3.359376 7.5-7.5 0-4.144532-3.355469-7.5-7.5-7.5zm0 0"/><path d="m400.195312 208.554688c-30.636718 0-55.757812 24.015624-57.554687 54.207031h-34.527344c-4.140625 0-7.5 3.359375-7.5 7.5v85.671875c0 4.144531 3.359375 7.5 7.5 7.5h85.671875c4.144532 0 7.5-3.355469 7.5-7.5v-32.0625c31.300782-.585938 56.582032-26.210938 56.582032-57.644532 0-31.800781-25.871094-57.671874-57.671876-57.671874zm-13.90625 98.003906c-13.136718-4.542969-23.378906-15.328125-27.164062-28.796875h27.164062zm-70.675781 41.875v-70.671875h28.074219c4.4375 21.765625 21.171875 39.101562 42.601562 44.429687v26.242188zm85.675781-39.5625v-38.609375c0-4.140625-3.359374-7.5-7.5-7.5h-36.109374c1.769531-21.914063 20.15625-39.207031 42.519531-39.207031 23.527343 0 42.671875 19.140624 42.671875 42.671874-.003906 23.164063-18.558594 42.0625-41.582032 42.644532zm0 0"/><path d="m428.058594 329.078125c-4.144532 0-7.5 3.355469-7.5 7.5 0 4.140625 3.355468 7.5 7.5 7.5h16.683594c4.144531 0 7.5-3.359375 7.5-7.5 0-4.144531-3.355469-7.5-7.5-7.5zm0 0"/><path d="m452.242188 355.933594c0-4.140625-3.355469-7.5-7.5-7.5h-16.683594c-4.144532 0-7.5 3.359375-7.5 7.5 0 4.144531 3.355468 7.5 7.5 7.5h16.683594c4.144531 0 7.5-3.355469 7.5-7.5zm0 0"/><path d="m137 205.566406h12c4.140625 0 7.5-3.355468 7.5-7.5 0-4.140625-3.359375-7.5-7.5-7.5h-12c-4.140625 0-7.5 3.359375-7.5 7.5 0 4.144532 3.359375 7.5 7.5 7.5zm0 0"/><path d="m137 227.417969h57.894531c4.144531 0 7.5-3.359375 7.5-7.5 0-4.144531-3.355469-7.5-7.5-7.5h-57.894531c-4.140625 0-7.5 3.355469-7.5 7.5 0 4.140625 3.359375 7.5 7.5 7.5zm0 0"/><path d="m182.894531 205.566406h12c4.144531 0 7.5-3.355468 7.5-7.5 0-4.140625-3.355469-7.5-7.5-7.5h-12c-4.140625 0-7.5 3.359375-7.5 7.5 0 4.144532 3.359375 7.5 7.5 7.5zm0 0"/><path d="m240.789062 190.566406h-12c-4.140624 0-7.5 3.359375-7.5 7.5 0 4.144532 3.359376 7.5 7.5 7.5h12c4.144532 0 7.5-3.355468 7.5-7.5 0-4.140625-3.355468-7.5-7.5-7.5zm0 0"/><path d="m137 249.105469h57.894531c4.144531 0 7.5-3.359375 7.5-7.5 0-4.144531-3.355469-7.5-7.5-7.5h-57.894531c-4.140625 0-7.5 3.355469-7.5 7.5 0 4.140625 3.359375 7.5 7.5 7.5zm0 0"/><path d="m129.5 263.289062c0 4.144532 3.359375 7.5 7.5 7.5h91.789062c4.144532 0 7.5-3.355468 7.5-7.5 0-4.140624-3.355468-7.5-7.5-7.5h-91.789062c-4.140625 0-7.5 3.359376-7.5 7.5zm0 0"/><path d="m248.289062 284.976562c0-4.140624-3.355468-7.5-7.5-7.5h-103.789062c-4.140625 0-7.5 3.359376-7.5 7.5 0 4.144532 3.359375 7.5 7.5 7.5h103.789062c4.144532 0 7.5-3.355468 7.5-7.5zm0 0"/><path d="m165.167969 319.917969c0-4.144531-3.359375-7.5-7.5-7.5h-20.667969c-4.140625 0-7.5 3.355469-7.5 7.5v20.664062c0 4.144531 3.359375 7.5 7.5 7.5h20.667969c4.140625 0 7.5-3.355469 7.5-7.5zm-15 13.167969h-5.667969v-5.667969h5.667969zm0 0"/><path d="m214.753906 319.917969c0-4.144531-3.359375-7.5-7.5-7.5h-20.667968c-4.140626 0-7.5 3.355469-7.5 7.5v20.664062c0 4.144531 3.359374 7.5 7.5 7.5h20.667968c4.140625 0 7.5-3.355469 7.5-7.5zm-15 13.167969h-5.667968v-5.667969h5.667968zm0 0"/><path d="m264.34375 319.917969c0-4.144531-3.359375-7.5-7.5-7.5h-20.667969c-4.144531 0-7.5 3.355469-7.5 7.5v20.664062c0 4.144531 3.355469 7.5 7.5 7.5h20.667969c4.140625 0 7.5-3.355469 7.5-7.5zm-15 13.167969h-5.667969v-5.667969h5.667969zm0 0"/><path d="m157.667969 365.085938h-20.667969c-4.140625 0-7.5 3.355468-7.5 7.5v20.664062c0 4.144531 3.359375 7.5 7.5 7.5h20.667969c4.140625 0 7.5-3.355469 7.5-7.5v-20.664062c0-4.144532-3.359375-7.5-7.5-7.5zm-7.5 20.664062h-5.667969v-5.667969h5.667969zm0 0"/><path d="m207.253906 365.085938h-20.667968c-4.140626 0-7.5 3.355468-7.5 7.5v20.664062c0 4.144531 3.359374 7.5 7.5 7.5h20.667968c4.140625 0 7.5-3.355469 7.5-7.5v-20.664062c0-4.144532-3.359375-7.5-7.5-7.5zm-7.5 20.664062h-5.667968v-5.667969h5.667968zm0 0"/><path d="m236.175781 400.75h20.667969c4.140625 0 7.5-3.355469 7.5-7.5v-20.667969c0-4.140625-3.359375-7.5-7.5-7.5h-20.667969c-4.144531 0-7.5 3.359375-7.5 7.5v20.667969c0 4.144531 3.355469 7.5 7.5 7.5zm7.5-20.664062h5.667969v5.664062h-5.667969zm0 0"/></svg>