<?xml version="1.0" encoding="iso-8859-1"?>
<!-- Generator: Adobe Illustrator 19.0.0, SVG Export Plug-In . SVG Version: 6.00 Build 0)  -->
<svg version="1.1" id="Layer_1" xmlns="http://www.w3.org/2000/svg" xmlns:xlink="http://www.w3.org/1999/xlink" x="0px" y="0px"
	 viewBox="0 0 498.192 498.192" style="enable-background:new 0 0 498.192 498.192;" xml:space="preserve">
<g>
	<path style="fill:#F9BA48;" d="M211.872,212.544c-0.392-3.128,0.104-6.112,1.16-8.832v0.008L201.304,192l24-8l9.528,1.36
		c-7.608-8.496-4.4-22.136,6.496-26.096l50.8-18.472C271.64,118.248,242.168,104,209.304,104c-61.856,0-112,50.144-112,112
		s50.144,112,112,112c22.744,0,43.864-6.824,61.536-18.464L217.304,256L211.872,212.544z"/>
	<path style="fill:#F9BA48;" d="M251.768,212.92L265.304,240l32,24l20.44-20.44c0.584-2.312,1.152-4.632,1.592-7l-8.696-15.224
		L251.768,212.92z"/>
</g>
<path style="fill:#333333;" d="M478.552,398.448l-21.624,5.408l-31.816-70l-9.944-89.504l14.72,2.104
	c0.976,0.144,1.952,0.2,2.912,0.2c8.688,0,16.56-5.528,19.368-13.976c1.928-5.76,1.2-12.032-1.992-17.2
	c-3.192-5.176-8.488-8.64-14.504-9.504l-18.368-2.632V40c0-22.056-17.944-40-40-40h-336c-22.056,0-40,17.944-40,40
	c0,19.312,13.768,35.472,32,39.192V496h319.68l0.624,2.192L369,493.8l-13.736-48.048l56.408-14.104l51.992-13l0,0l4.392-1.096
	l13.664,40.976l15.168-5.064L478.552,398.448z M441.144,407.792l-70.896,17.72l-18.056-54.152l-57.232-49.024l-70.056-70.064
	l-5.096-40.728c-0.168-1.352-0.048-2.672,0.288-3.936l0.392-1c0.768-1.976,2.064-3.6,3.688-4.752
	c4.176-2.728,10.24-1.96,13.592,1.728c0.544,0.632,1.048,1.312,1.432,2.088l7.28,14.568l0,0l12.504,25.016l39.064,29.296
	l33.224-33.224l-5.576-9.768l73.112,10.448l10.536,94.864L441.144,407.792z M137.376,270.48c5.176,0.952,10.48,1.52,15.928,1.52
	c20.44,0,39.896-7.128,55.456-19.808l0.936,7.528l56.344,56.312C252.44,333.6,231.712,344,209.304,344c-39.704,0-72-32.296-72-72
	C137.304,271.488,137.368,270.992,137.376,270.48z M393.8,196.88l0.352,3.152l-49.272-7.04L300,186.576l-6.512-11.392l-33.808,5.632
	l-7.64-1.088l-12.632-1.808c-0.776-1.68-0.96-3.584-0.488-5.472c0.664-2.664,2.536-4.736,5.144-5.68l60.456-21.984L393.8,196.88z
	 M253.504,198.512c-0.456-0.904-0.952-1.784-1.504-2.616l111.384,15.912l37.592,5.368l-1.488,8.76L257.04,205.584L253.504,198.512z
	 M198.84,200.856l5.336,5.336c-0.384,2.416-0.552,4.872-0.24,7.344l1.24,9.944c-4.48-6.776-7.76-14.24-9.72-22.136
	C196.568,201.136,197.712,201.016,198.84,200.856z M306.096,127.2l-67.504,24.544c-1.032,0.376-1.936,0.968-2.896,1.472
	c-3.536-9.472-8.64-18.112-14.968-25.656c12.28-9.712,27.744-15.56,44.576-15.56c19.176,0,37.12,7.808,50.328,20.768L306.096,127.2z
	 M223.488,168.336c-0.024,0.08-0.072,0.152-0.088,0.24c-0.648,2.592-0.704,5.208-0.504,7.8l-25.8,8.6
	c-1.24,0.168-2.488,0.304-3.704,0.528c-0.016-0.512-0.088-1-0.088-1.504c0-17.088,6.008-32.776,15.984-45.136
	C216.08,147.272,221.032,157.272,223.488,168.336z M177.304,184c0,1.976,0.208,3.92,0.336,5.88
	c-26.472,10.088-46.376,32.4-53.456,59.912C98.96,238.584,81.304,213.336,81.304,184c0-39.704,32.296-72,72-72
	c16.672,0,32.216,5.792,44.576,15.56C185.056,142.848,177.304,162.528,177.304,184z M180.216,206.152
	c3.264,12.6,9.272,24.272,17.712,34.28C185.32,250.424,169.688,256,153.304,256c-4.736,0-9.36-0.488-13.84-1.368
	C144.792,232.88,159.904,215.04,180.216,206.152z M311.328,238.664l-14.776,14.776l-24.936-18.704l-5.864-11.728l39.88,5.696
	L311.328,238.664z M436.56,223.88c0.408,0.656,1.008,2.016,0.432,3.744c-0.68,2.032-2.744,3.304-4.832,2.984l-16.816-2.4l1.488-8.76
	l16.576,2.368C435.2,222.072,436.152,223.216,436.56,223.88z M401.304,40v142.736l-16-9.336V64h-8c-13.232,0-24-10.768-24-24
	s10.768-24,24-24S401.304,26.768,401.304,40z M17.304,40c0-13.232,10.768-24,24-24h304.208c-5.08,6.704-8.208,14.96-8.208,24
	s3.128,17.296,8.208,24H41.304C28.072,64,17.304,53.232,17.304,40z M335.344,434.24L348.408,480H49.304V80h320v84.072l-22.632-13.2
	C333.256,117.944,300.968,96,265.304,96c-21.256,0-40.768,7.576-56,20.168C193.968,103.504,174.36,96,153.304,96
	c-48.52,0-88,39.48-88,88c0,37.328,23.408,69.224,56.28,81.992c-0.136,1.992-0.28,3.984-0.28,6.008c0,48.52,39.48,88,88,88
	c26.72,0,51.52-12.04,68.168-32.552l6.624,6.624l54.312,46.56l16.264,48.776L335.344,434.24z"/>
<g>
</g>
<g>
</g>
<g>
</g>
<g>
</g>
<g>
</g>
<g>
</g>
<g>
</g>
<g>
</g>
<g>
</g>
<g>
</g>
<g>
</g>
<g>
</g>
<g>
</g>
<g>
</g>
<g>
</g>
</svg>
