<svg width="238" height="73" viewBox="0 0 238 73" fill="none" xmlns="http://www.w3.org/2000/svg">
<rect x="1.5" y="1.5" width="235" height="70" stroke="black" stroke-width="3"/>
<path d="M72.96 27.36V35.88H86.48V40.28H72.96V51H67.76V23H88.2V27.36H72.96ZM112.243 40.44C112.243 40.7867 112.216 41.28 112.163 41.92H95.4028C95.6961 43.4933 96.4561 44.7467 97.6828 45.68C98.9361 46.5867 100.483 47.04 102.323 47.04C104.669 47.04 106.603 46.2667 108.123 44.72L110.803 47.8C109.843 48.9467 108.629 49.8133 107.163 50.4C105.696 50.9867 104.043 51.28 102.203 51.28C99.8561 51.28 97.7895 50.8133 96.0028 49.88C94.2161 48.9467 92.8295 47.6533 91.8428 46C90.8828 44.32 90.4028 42.4267 90.4028 40.32C90.4028 38.24 90.8695 36.3733 91.8028 34.72C92.7628 33.04 94.0828 31.7333 95.7628 30.8C97.4428 29.8667 99.3361 29.4 101.443 29.4C103.523 29.4 105.376 29.8667 107.003 30.8C108.656 31.7067 109.936 33 110.843 34.68C111.776 36.3333 112.243 38.2533 112.243 40.44ZM101.443 33.4C99.8428 33.4 98.4828 33.88 97.3628 34.84C96.2695 35.7733 95.6028 37.0267 95.3628 38.6H107.483C107.269 37.0533 106.616 35.8 105.523 34.84C104.429 33.88 103.069 33.4 101.443 33.4ZM117.046 21.32H122.046V51H117.046V21.32ZM138.408 51.28C136.195 51.28 134.208 50.8133 132.448 49.88C130.688 48.9467 129.315 47.6533 128.328 46C127.341 44.32 126.848 42.4267 126.848 40.32C126.848 38.2133 127.341 36.3333 128.328 34.68C129.315 33.0267 130.675 31.7333 132.408 30.8C134.168 29.8667 136.168 29.4 138.408 29.4C140.515 29.4 142.355 29.8267 143.928 30.68C145.528 31.5333 146.728 32.76 147.528 34.36L143.688 36.6C143.075 35.6133 142.301 34.88 141.368 34.4C140.461 33.8933 139.461 33.64 138.368 33.64C136.501 33.64 134.955 34.2533 133.728 35.48C132.501 36.68 131.888 38.2933 131.888 40.32C131.888 42.3467 132.488 43.9733 133.688 45.2C134.915 46.4 136.475 47 138.368 47C139.461 47 140.461 46.76 141.368 46.28C142.301 45.7733 143.075 45.0267 143.688 44.04L147.528 46.28C146.701 47.88 145.488 49.12 143.888 50C142.315 50.8533 140.488 51.28 138.408 51.28ZM161.138 51.28C158.978 51.28 157.031 50.8133 155.298 49.88C153.564 48.9467 152.204 47.6533 151.218 46C150.258 44.32 149.778 42.4267 149.778 40.32C149.778 38.2133 150.258 36.3333 151.218 34.68C152.204 33.0267 153.564 31.7333 155.298 30.8C157.031 29.8667 158.978 29.4 161.138 29.4C163.324 29.4 165.284 29.8667 167.018 30.8C168.751 31.7333 170.098 33.0267 171.058 34.68C172.044 36.3333 172.538 38.2133 172.538 40.32C172.538 42.4267 172.044 44.32 171.058 46C170.098 47.6533 168.751 48.9467 167.018 49.88C165.284 50.8133 163.324 51.28 161.138 51.28ZM161.138 47C162.978 47 164.498 46.3867 165.698 45.16C166.898 43.9333 167.498 42.32 167.498 40.32C167.498 38.32 166.898 36.7067 165.698 35.48C164.498 34.2533 162.978 33.64 161.138 33.64C159.298 33.64 157.778 34.2533 156.578 35.48C155.404 36.7067 154.818 38.32 154.818 40.32C154.818 42.32 155.404 43.9333 156.578 45.16C157.778 46.3867 159.298 47 161.138 47Z" fill="#44223A"/>
</svg>
